# xmcd CD database file
#
# Track frame offsets:
#	150
#	11072
#	31481
#	74415
#	105509
#	147273
#	156517
#	162956
#	207172
#	217866
#
# Disc length: 3191 seconds
#
# Revision: 0
# Processed by: cddbd v1.5.1PL0 Copyright (c) Steve Scherf et al.
# Submitted via: CDex 1.51
#
DISCID=8a0c750a
DTITLE=Enrico Rava - What A Day!!!
DYEAR=2002
DGENRE=Jazz
TTITLE0=What A Day
TTITLE1=Dyani
TTITLE2=Titina
TTITLE3=Sun Bay
TTITLE4=You Don't Know What Love Is
TTITLE5=Outsider
TTITLE6=Tempo Di Migrare
TTITLE7=My Funny Valentine
TTITLE8=Avarando
TTITLE9=E Penso A Te
EXTD=YEAR: 2002
EXTT0=
EXTT1=
EXTT2=
EXTT3=
EXTT4=
EXTT5=
EXTT6=
EXTT7=
EXTT8=
EXTT9=
PLAYORDER=
